# xmcd CD database file
#
# Track frame offsets:
#	150
#	11950
#	29040
#	47775
#	68587
#	88645
#	103010
#	119427
#	134087
#	151845
#	170352
#	187455
#	202865
#	223042
#	241195
#	265380
#	277267
#	293087
#
# Disc length: 4232 seconds
#
# Revision: 0
# Processed by: cddbd v1.5.1PL0 Copyright (c) Steve Scherf et al.
# Submitted via: CDex 1.51
#
DISCID=1a108612
DTITLE=Magnus Rosén feat. Biggi Vinkeloe - Imagine a place
DYEAR=2000
DGENRE=Jazz
TTITLE0=The key to your soul
TTITLE1=Land of spirits
TTITLE2=Imagine a place
TTITLE3=Enchanted wood
TTITLE4=Gate to heaven
TTITLE5=First steps
TTITLE6=Romance
TTITLE7=A temple in China
TTITLE8=Blues man
TTITLE9=Open heart
TTITLE10=A memory
TTITLE11=Past future
TTITLE12=Newborn waterfall
TTITLE13=A church without walls of roof
TTITLE14=A relationship in Tokyo
TTITLE15=Infinity
TTITLE16=Castle garden
TTITLE17=No name
EXTD=YEAR: 2000
EXTT0=
EXTT1=
EXTT2=
EXTT3=
EXTT4=
EXTT5=
EXTT6=
EXTT7=
EXTT8=
EXTT9=
EXTT10=
EXTT11=
EXTT12=
EXTT13=
EXTT14=
EXTT15=
EXTT16=
EXTT17=
PLAYORDER=
